<?xml version="1.0" encoding="UTF-8"?>
<!DOCTYPE svg PUBLIC "-//W3C//DTD SVG 1.1//EN" "http://www.w3.org/Graphics/SVG/1.1/DTD/svg11.dtd">
<svg xmlns="http://www.w3.org/2000/svg" version="1.1" width="391px" height="396px" style="shape-rendering:geometricPrecision; text-rendering:geometricPrecision; image-rendering:optimizeQuality; fill-rule:evenodd; clip-rule:evenodd" xmlns:xlink="http://www.w3.org/1999/xlink">
<g><path style="opacity:0.991" fill="#fdfdfd" d="M 213.5,395.5 C 200.167,395.5 186.833,395.5 173.5,395.5C 90.0786,383.25 34.5786,337.25 7,257.5C 3.73084,245.518 1.23084,233.518 -0.5,221.5C -0.5,208.167 -0.5,194.833 -0.5,181.5C 7.99845,116.638 39.9985,67.1384 95.5,33C 148.766,4.21655 204.099,-0.450121 261.5,19C 320.964,42.4637 360.464,84.6304 380,145.5C 400.458,227.107 379.624,295.941 317.5,352C 286.868,376.155 252.201,390.655 213.5,395.5 Z"/></g>
<g><path style="opacity:1" fill="#010101" d="M 150.5,21.5 C 154.5,21.5 158.5,21.5 162.5,21.5C 162.177,27.69 162.51,33.69 163.5,39.5C 167.5,39.5 171.5,39.5 175.5,39.5C 176.49,33.69 176.823,27.69 176.5,21.5C 180.5,21.5 184.5,21.5 188.5,21.5C 188.5,27.5 188.5,33.5 188.5,39.5C 192.5,39.5 196.5,39.5 200.5,39.5C 201.49,33.69 201.823,27.69 201.5,21.5C 205.5,21.5 209.5,21.5 213.5,21.5C 213.5,27.5 213.5,33.5 213.5,39.5C 217.5,39.5 221.5,39.5 225.5,39.5C 226.49,33.69 226.823,27.69 226.5,21.5C 230.5,21.5 234.5,21.5 238.5,21.5C 238.5,27.5 238.5,33.5 238.5,39.5C 229.326,71.8594 219.993,104.193 210.5,136.5C 226.998,142.787 236.331,154.787 238.5,172.5C 238.5,196.833 238.5,221.167 238.5,245.5C 258.167,245.5 277.833,245.5 297.5,245.5C 297.5,282.5 297.5,319.5 297.5,356.5C 287.833,356.5 278.167,356.5 268.5,356.5C 268.5,355.833 268.5,355.167 268.5,354.5C 268.5,327.833 268.5,301.167 268.5,274.5C 258.833,274.5 249.167,274.5 239.5,274.5C 238.502,301.662 238.169,328.995 238.5,356.5C 228.833,356.5 219.167,356.5 209.5,356.5C 209.5,329.167 209.5,301.833 209.5,274.5C 199.5,274.5 189.5,274.5 179.5,274.5C 179.5,302.167 179.5,329.833 179.5,357.5C 169.652,357.827 159.986,357.494 150.5,356.5C 150.5,329.167 150.5,301.833 150.5,274.5C 140.5,274.5 130.5,274.5 120.5,274.5C 120.5,302.167 120.5,329.833 120.5,357.5C 110.833,357.5 101.167,357.5 91.5,357.5C 91.5,320.167 91.5,282.833 91.5,245.5C 111.167,245.5 130.833,245.5 150.5,245.5C 150.333,219.498 150.5,193.498 151,167.5C 155.673,152.668 164.84,141.668 178.5,134.5C 169.337,103.505 160.17,72.5049 151,41.5C 150.5,34.8417 150.334,28.175 150.5,21.5 Z"/></g>
<g><path style="opacity:1" fill="#7b7b7b" d="M 150.5,21.5 C 154.634,20.5151 158.968,20.1818 163.5,20.5C 163.5,26.8333 163.5,33.1667 163.5,39.5C 162.51,33.69 162.177,27.69 162.5,21.5C 158.5,21.5 154.5,21.5 150.5,21.5 Z"/></g>
<g><path style="opacity:1" fill="#565656" d="M 188.5,21.5 C 184.5,21.5 180.5,21.5 176.5,21.5C 176.823,27.69 176.49,33.69 175.5,39.5C 175.5,33.1667 175.5,26.8333 175.5,20.5C 180.032,20.1818 184.366,20.5151 188.5,21.5 Z"/></g>
<g><path style="opacity:1" fill="#474747" d="M 213.5,21.5 C 209.5,21.5 205.5,21.5 201.5,21.5C 201.823,27.69 201.49,33.69 200.5,39.5C 200.5,33.1667 200.5,26.8333 200.5,20.5C 205.032,20.1818 209.366,20.5151 213.5,21.5 Z"/></g>
<g><path style="opacity:1" fill="#7d7d7d" d="M 238.5,39.5 C 238.5,33.5 238.5,27.5 238.5,21.5C 234.5,21.5 230.5,21.5 226.5,21.5C 226.823,27.69 226.49,33.69 225.5,39.5C 225.5,33.1667 225.5,26.8333 225.5,20.5C 230.167,20.5 234.833,20.5 239.5,20.5C 239.823,27.0221 239.49,33.3554 238.5,39.5 Z"/></g>
<g><path style="opacity:1" fill="#fafafa" d="M 209.5,244.5 C 199.833,244.5 190.167,244.5 180.5,244.5C 180.5,220.833 180.5,197.167 180.5,173.5C 181.404,169.435 183.737,166.935 187.5,166C 189.727,172.849 192.061,179.682 194.5,186.5C 197.308,179.263 199.808,171.93 202,164.5C 205.256,166.336 207.589,169.003 209,172.5C 209.5,196.498 209.667,220.498 209.5,244.5 Z"/></g>
<g><path style="opacity:1" fill="#b7b7b7" d="M 180.5,173.5 C 180.5,197.167 180.5,220.833 180.5,244.5C 190.167,244.5 199.833,244.5 209.5,244.5C 199.681,245.494 189.681,245.827 179.5,245.5C 179.169,221.328 179.502,197.328 180.5,173.5 Z"/></g>
<g><path style="opacity:1" fill="#969696" d="M 238.5,172.5 C 239.498,196.328 239.831,220.328 239.5,244.5C 259.34,244.17 279.007,244.503 298.5,245.5C 298.167,245.5 297.833,245.5 297.5,245.5C 277.833,245.5 258.167,245.5 238.5,245.5C 238.5,221.167 238.5,196.833 238.5,172.5 Z"/></g>
<g><path style="opacity:1" fill="#373737" d="M 297.5,245.5 C 297.833,245.5 298.167,245.5 298.5,245.5C 298.5,282.833 298.5,320.167 298.5,357.5C 288.319,357.827 278.319,357.494 268.5,356.5C 278.167,356.5 287.833,356.5 297.5,356.5C 297.5,319.5 297.5,282.5 297.5,245.5 Z"/></g>
<g><path style="opacity:1" fill="#d4d4d4" d="M 150.5,356.5 C 149.502,329.672 149.169,302.672 149.5,275.5C 140.249,275.182 131.083,275.515 122,276.5C 121.832,303.67 121.332,330.67 120.5,357.5C 120.5,329.833 120.5,302.167 120.5,274.5C 130.5,274.5 140.5,274.5 150.5,274.5C 150.5,301.833 150.5,329.167 150.5,356.5 Z"/></g>
<g><path style="opacity:1" fill="#d3d3d3" d="M 209.5,356.5 C 209.5,356.833 209.5,357.167 209.5,357.5C 208.502,330.338 208.169,303.005 208.5,275.5C 199.167,275.5 189.833,275.5 180.5,275.5C 180.831,303.005 180.498,330.338 179.5,357.5C 179.5,329.833 179.5,302.167 179.5,274.5C 189.5,274.5 199.5,274.5 209.5,274.5C 209.5,301.833 209.5,329.167 209.5,356.5 Z"/></g>
<g><path style="opacity:1" fill="#6d6d6d" d="M 239.5,274.5 C 239.5,274.833 239.5,275.167 239.5,275.5C 239.5,302.833 239.5,330.167 239.5,357.5C 229.5,357.5 219.5,357.5 209.5,357.5C 209.5,357.167 209.5,356.833 209.5,356.5C 219.167,356.5 228.833,356.5 238.5,356.5C 238.169,328.995 238.502,301.662 239.5,274.5 Z"/></g>
<g><path style="opacity:1" fill="#e1e1e1" d="M 239.5,275.5 C 239.5,275.167 239.5,274.833 239.5,274.5C 249.167,274.5 258.833,274.5 268.5,274.5C 268.5,301.167 268.5,327.833 268.5,354.5C 267.668,328.67 267.168,302.67 267,276.5C 257.917,275.515 248.751,275.182 239.5,275.5 Z"/></g>
</svg>
